<svg xmlns="http://www.w3.org/2000/svg" xmlns:xlink="http://www.w3.org/1999/xlink" width="19.351" height="19.352" viewBox="0 0 19.351 19.352">
  <defs>
    <clipPath id="clip-path">
      <rect id="Rectangle_623" data-name="Rectangle 623" width="19.351" height="19.352" fill="#d9d9d9"/>
    </clipPath>
  </defs>
  <g id="Group_723" data-name="Group 723" clip-path="url(#clip-path)">
    <path id="Path_297" data-name="Path 297" d="M4.507,21.983H2.14A1.254,1.254,0,0,1,.889,20.731V10.725A1.253,1.253,0,0,1,2.14,9.473H4.507a1.253,1.253,0,0,1,1.251,1.252V20.731a1.254,1.254,0,0,1-1.251,1.252M2.432,20.439H4.215V11.016H2.432Z" transform="translate(-0.34 -3.625)" fill="#d9d9d9"/>
    <path id="Path_299" data-name="Path 299" d="M20.508,19.112H12.176a2.247,2.247,0,0,1-2.136-2.339V7.326a2.48,2.48,0,0,1,.527-1.54L13.919,1.57A2.248,2.248,0,0,1,15.677.7a2.141,2.141,0,0,1,1.939,1.275,2.584,2.584,0,0,1-.283,2.715l-1,1.258h4.177a2.247,2.247,0,0,1,2.136,2.339v8.488a2.247,2.247,0,0,1-2.136,2.339M15.677,2.241a.715.715,0,0,0-.549.29L11.775,6.747a.943.943,0,0,0-.191.579v9.447c0,.431.271.8.592.8h8.333c.321,0,.592-.364.592-.8V8.285c0-.432-.271-.8-.592-.8H15.82A1.244,1.244,0,0,1,14.7,6.768a1.376,1.376,0,0,1,.156-1.447l1.268-1.594a1.036,1.036,0,0,0,.1-1.084.634.634,0,0,0-.548-.4" transform="translate(-3.841 -0.267)" fill="#d9d9d9"/>
  </g>
</svg>
